<?xml version="1.0" encoding="utf-8"?>
<!-- Generator: Adobe Illustrator 22.0.1, SVG Export Plug-In . SVG Version: 6.00 Build 0)  -->
<svg version="1.1" id="instagram" xmlns="http://www.w3.org/2000/svg" xmlns:xlink="http://www.w3.org/1999/xlink" x="0px" y="0px"
	 viewBox="0 0 59.1 61.1" style="enable-background:new 0 0 59.1 61.1;" xml:space="preserve">
<style type="text/css">
	.st0{fill:#F5F1EE;}
</style>
<g>
	<path class="st0" d="M45.7,2.7H13.4C7.8,2.7,3.3,7.3,3.3,12.9v10.7v21.5c0,5.6,4.6,10.2,10.2,10.2h32.3c5.6,0,10.2-4.6,10.2-10.2
		V23.6V12.9C55.8,7.3,51.3,2.7,45.7,2.7z M48.6,8.8l1.2,0v1.2v7.7l-8.9,0l0-8.9L48.6,8.8z M22,23.6c1.7-2.3,4.4-3.9,7.5-3.9
		s5.8,1.5,7.5,3.9c1.1,1.5,1.8,3.4,1.8,5.4c0,5.1-4.2,9.3-9.3,9.3c-5.1,0-9.3-4.2-9.3-9.3C20.3,27,20.9,25.1,22,23.6z M50.7,45.1
		c0,2.8-2.3,5-5,5H13.4c-2.8,0-5-2.3-5-5V23.6h7.8c-0.7,1.7-1.1,3.5-1.1,5.4c0,7.9,6.4,14.4,14.4,14.4c7.9,0,14.4-6.4,14.4-14.4
		c0-1.9-0.4-3.7-1.1-5.4h7.9V45.1z"/>
</g>
</svg>
