<?xml version="1.0" encoding="utf-8"?>
<!-- Generator: Adobe Illustrator 22.0.1, SVG Export Plug-In . SVG Version: 6.00 Build 0)  -->
<svg version="1.1" id="London_Bakerology_symbol" xmlns="http://www.w3.org/2000/svg" xmlns:xlink="http://www.w3.org/1999/xlink"
	 x="0px" y="0px" viewBox="0 0 50 86" style="enable-background:new 0 0 50 86;" xml:space="preserve">
<style type="text/css">
	.st0{fill:#AADAD1;}
	.st1{fill:none;stroke:#053E68;stroke-miterlimit:10;}
	.st2{fill:#F29794;}
	.st3{fill:#053E68;}
</style>
<g id="Symbol">
	<g id="Pin_location_1_">
		<path id="Pin_location" class="st0" d="M41.9,40.8c-0.1,5.1-3,9.7-5.9,14c-2.1,3.2-4.3,6.5-6.5,9.7c-1.6,2.4-3.1,5-4.8,7.4
			c-0.2,0.4-0.5,0.7-0.9,0.9c-0.7,0.4-1.3-0.3-1.7-0.9C18.7,66.9,15.3,62,12,57c-3.4-5-6.9-10.4-7.1-16.5L41.9,40.8z"/>
		<path id="Pin_location_outline" class="st1" d="M44,40.5c-0.1,5.1-3,9.7-5.9,14c-2.1,3.2-4.3,6.5-6.5,9.7c-1.6,2.4-3.1,5-4.8,7.4
			c-0.2,0.4-0.5,0.7-0.9,0.9c-0.7,0.4-1.3-0.3-1.7-0.9c-3.4-5-6.8-9.9-10.1-14.9c-3.4-5-6.9-10.4-7.1-16.5L44,40.5z"/>
		<path id="Vertical_line_1" class="st1" d="M11.2,40.2c0,0,4.3,10.1,13.2,31.5"/>
		<path id="Vertical_line_2" class="st1" d="M27.4,71.1c9-21.7,12.1-30.9,12.1-30.9"/>
		<line id="Vertical_line_3" class="st1" x1="25.6" y1="40.4" x2="25.6" y2="72.6"/>
	</g>
	<g id="Bake">
		<path id="Pink_bake_1_" class="st2" d="M4.8,36.1L4.8,36.1c-1.1-1.8-1.2-4.3-0.4-6.2s2.9-3.5,5-3.8C9,23.5,10.2,20.9,12,19
			c1.8-1.8,4.3-2.9,6.8-3.6c4-1,8.4-1,12.1,0.9s6.5,5.7,6.5,9.8c2.1,0.4,4,1.9,4.9,3.9s0.7,4.3-0.4,6.2
			C29.6,36.1,17.2,36.1,4.8,36.1z"/>
		<path id="Baked_outline_1_" class="st1" d="M7,35.7L7,35.7c-1.1-1.8-1.2-4.3-0.4-6.2s2.9-3.5,5-3.8c-0.4-2.6,0.8-5.2,2.6-7.1
			c1.8-1.8,4.3-2.9,6.8-3.6c4-1,8.4-1,12.1,0.9c3.7,1.8,6.5,5.7,6.5,9.8c2.1,0.4,4,1.9,4.9,3.9s0.7,4.3-0.4,6.2
			C31.8,35.7,19.4,35.7,7,35.7z"/>
		<circle id="Texture_1_2_" class="st3" cx="25.6" cy="17.5" r="1"/>
		<circle id="Texture_2_1_" class="st3" cx="15.2" cy="25.7" r="0.8"/>
		<circle id="Texture_3_1_" class="st3" cx="22.3" cy="21.4" r="0.8"/>
		<circle id="Texture_4_1_" class="st3" cx="29.1" cy="21.4" r="0.8"/>
		<circle id="Texture_5_1_" class="st3" cx="36" cy="26" r="0.8"/>
		<circle id="Texture_6_1_" class="st3" cx="32.8" cy="23.2" r="0.4"/>
		<circle id="Texture_7_1_" class="st3" cx="17.7" cy="23.2" r="0.4"/>
		<circle id="Texture_8_1_" class="st3" cx="25.6" cy="25.1" r="0.4"/>
		<circle id="Texture_9_1_" class="st3" cx="35.6" cy="32.4" r="0.4"/>
		<circle id="Texture_10_1_" class="st3" cx="37.3" cy="31" r="0.4"/>
		<circle id="Texture_11_1_" class="st3" cx="34.2" cy="19.5" r="0.4"/>
		<circle id="Texture_12_1_" class="st3" cx="16.8" cy="19.9" r="0.4"/>
		<circle id="Texture_13_1_" class="st3" cx="15.4" cy="32.5" r="0.4"/>
		<circle id="Texture_14_1_" class="st3" cx="13.7" cy="31.1" r="0.4"/>
	</g>
</g>
<g id="London_Bakerology_1_">
</g>
<g id="Slogan">
</g>
</svg>
