<svg id="London_Bakerology_logo" data-name="London Bakerology logo" xmlns="http://www.w3.org/2000/svg" viewBox="0 0 85.51 103.24"><defs><style>.cls-1{fill:#aadad1;}.cls-2{fill:none;stroke:#053e68;stroke-miterlimit:10;stroke-width:0.8px;}.cls-3{isolation:isolate;font-size:19.44px;font-family:OstrichSansRounded-Medium, Ostrich Sans Rounded;letter-spacing:0.09em;}.cls-3,.cls-5{fill:#053e68;}.cls-4{fill:#f29794;}</style></defs><title>london_bakerology_logo</title><g id="Symbol"><g id="Pin_location" data-name="Pin location"><path id="Pin_location-2" data-name="Pin location" class="cls-1" d="M72.1,36.4c-.1,5.4-3.2,10.3-6.3,14.9-2.2,3.4-4.6,6.9-6.8,10.3-1.7,2.5-3.3,5.3-5,7.9a3.14,3.14,0,0,1-1,1c-.7.3-1.4-.3-1.8-1C47.6,64.3,44.1,59,40.5,53.8s-7.3-11-7.4-17.4Z" transform="translate(-10.63 -8.1)"/><path id="Pin_location_outline" data-name="Pin location outline" class="cls-2" d="M74.2,36c-.1,5.4-3.2,10.3-6.3,14.9-2.2,3.4-4.6,6.9-6.8,10.3-1.7,2.5-3.3,5.3-5,7.9a3.14,3.14,0,0,1-1,1c-.7.3-1.4-.3-1.8-1-3.6-5.2-7.1-10.5-10.7-15.7s-7.3-11-7.4-17.4Z" transform="translate(-10.63 -8.1)"/><path id="Vertical_line_1" data-name="Vertical line 1" class="cls-2" d="M39.6,35.7s4.6,10.7,13.9,33.2" transform="translate(-10.63 -8.1)"/><path id="Vertical_line_2" data-name="Vertical line 2" class="cls-2" d="M56.6,68.4c9.6-22.9,12.8-32.6,12.8-32.6" transform="translate(-10.63 -8.1)"/><line id="Vertical_line_3" data-name="Vertical line 3" class="cls-2" x1="44.07" y1="27.8" x2="44.07" y2="61.9"/><g id="London_Bakerology" data-name="London Bakerology"><text class="cls-3" transform="translate(17.53 84.41)">LONDON </text><text class="cls-3" transform="translate(0 102.48)">bAKErOLOGY</text></g></g><g id="Bake"><path id="Pink_bake" data-name="Pink bake" class="cls-4" d="M32.8,31.4h0a7.07,7.07,0,0,1,4.9-10.7,8.91,8.91,0,0,1,2.8-7.4,16.18,16.18,0,0,1,7.2-3.8,18,18,0,0,1,12.7,1c3.9,2,6.9,5.9,6.9,10.3a7.18,7.18,0,0,1,5.1,4,7.33,7.33,0,0,1-.4,6.6Z" transform="translate(-10.63 -8.1)"/><path id="Baked_outline" data-name="Baked outline" class="cls-2" d="M35.1,31h0a7,7,0,0,1-.4-6.6,7.27,7.27,0,0,1,5.3-4A8.91,8.91,0,0,1,42.8,13,16.72,16.72,0,0,1,50,9.2a18,18,0,0,1,12.7,1c3.9,2,6.9,5.9,6.9,10.3a7.18,7.18,0,0,1,5.1,4,7.33,7.33,0,0,1-.4,6.6C61.3,31,48.2,31,35.1,31Z" transform="translate(-10.63 -8.1)"/><circle id="Texture_1" data-name="Texture 1" class="cls-5" cx="44.07" cy="3.7" r="1.2"/><circle id="Texture_2" data-name="Texture 2" class="cls-5" cx="33.17" cy="12.3" r="0.8"/><circle id="Texture_3" data-name="Texture 3" class="cls-5" cx="40.57" cy="7.7" r="0.8"/><circle id="Texture_4" data-name="Texture 4" class="cls-5" cx="47.87" cy="7.7" r="0.8"/><circle id="Texture_5" data-name="Texture 5" class="cls-5" cx="55.07" cy="12.6" r="0.8"/><circle id="Texture_6" data-name="Texture 6" class="cls-5" cx="51.67" cy="9.8" r="0.4"/><circle id="Texture_7" data-name="Texture 7" class="cls-5" cx="35.87" cy="9.8" r="0.4"/><circle id="Texture_8" data-name="Texture 8" class="cls-5" cx="44.07" cy="11.7" r="0.4"/><circle id="Texture_9" data-name="Texture 9" class="cls-5" cx="54.67" cy="19.4" r="0.4"/><circle id="Texture_10" data-name="Texture 10" class="cls-5" cx="56.47" cy="17.9" r="0.4"/><circle id="Texture_11" data-name="Texture 11" class="cls-5" cx="53.27" cy="5.7" r="0.4"/><circle id="Texture_12" data-name="Texture 12" class="cls-5" cx="34.77" cy="6.1" r="0.4"/><circle id="Texture_13" data-name="Texture 13" class="cls-5" cx="33.37" cy="19.5" r="0.4"/><circle id="Texture_14" data-name="Texture 14" class="cls-5" cx="31.57" cy="18" r="0.4"/></g></g></svg>