<?xml version="1.0" encoding="utf-8"?>
<!-- Generator: Adobe Illustrator 22.0.1, SVG Export Plug-In . SVG Version: 6.00 Build 0)  -->
<svg version="1.1" id="twitter" xmlns="http://www.w3.org/2000/svg" xmlns:xlink="http://www.w3.org/1999/xlink" x="0px" y="0px"
	 viewBox="0 0 59.1 61.1" style="enable-background:new 0 0 59.1 61.1;" xml:space="preserve">
<style type="text/css">
	.st0{fill:#F5F1EE;}
</style>
<g>
	<g>
		<path class="st0" d="M55.9,9c-2.2,1.3-4.7,2.2-7.3,2.7c-2.1-2.2-5.1-3.6-8.4-3.6c-6.3,0-11.4,5-11.4,11.3c0,0.9,0.1,1.7,0.3,2.6
			c-9.5-0.5-17.9-5-23.6-11.8c-1,1.7-1.6,3.6-1.6,5.7c0,3.9,2,7.4,5.1,9.4c-1.9-0.1-3.6-0.6-5.2-1.4c0,0,0,0.1,0,0.1
			c0,5.5,3.9,10,9.2,11c-1,0.3-2,0.4-3,0.4c-0.7,0-1.5-0.1-2.2-0.2c1.5,4.5,5.7,7.7,10.7,7.8c-3.9,3-8.9,4.8-14.2,4.8
			c-0.9,0-1.8-0.1-2.7-0.2c5.1,3.2,11.1,5.1,17.5,5.1c21.1,0,32.6-17.2,32.6-32.1c0-0.5,0-1,0-1.5c2.2-1.6,4.2-3.6,5.7-5.8
			c-2.1,0.9-4.3,1.5-6.6,1.8C53.2,13.9,55,11.7,55.9,9z"/>
	</g>
</g>
</svg>
